<?xml version="1.0" standalone="no"?>
<!DOCTYPE svg PUBLIC "-//W3C//DTD SVG 20010904//EN"
 "http://www.w3.org/TR/2001/REC-SVG-20010904/DTD/svg10.dtd">
<svg version="1.0" xmlns="http://www.w3.org/2000/svg"
 width="512.000000pt" height="512.000000pt" viewBox="0 0 512.000000 512.000000"
 preserveAspectRatio="xMidYMid meet">

<g transform="translate(0.000000,512.000000) scale(0.100000,-0.100000)"
fill="#000000" stroke="none">
<path d="M1402 4458 c-32 -18 -166 -172 -580 -669 -295 -355 -545 -657 -555
-672 -9 -14 -17 -38 -17 -51 0 -14 -9 -40 -20 -58 -26 -44 -25 -87 3 -130 13
-19 491 -547 1063 -1174 571 -627 1054 -1162 1071 -1187 52 -76 124 -107 212
-92 54 9 105 45 180 129 35 39 518 567 1072 1172 554 606 1018 1119 1031 1140
24 39 48 124 48 171 0 14 -13 44 -29 68 -51 76 -1080 1304 -1107 1322 -15 10
-50 25 -78 35 -47 17 -122 18 -1152 18 l-1101 0 -41 -22z m512 -407 c3 -5 -26
-193 -64 -419 -39 -225 -70 -415 -70 -421 0 -8 -121 -11 -445 -11 -245 0 -445
2 -445 5 0 6 639 775 683 823 l31 32 152 0 c84 0 155 -4 158 -9z m864 -31 c2
-19 30 -205 62 -412 33 -207 60 -384 60 -392 0 -14 -38 -16 -350 -16 -192 0
-350 3 -350 8 0 4 32 181 70 395 39 213 70 400 70 415 0 16 3 32 7 36 4 3 102
5 217 4 l211 -3 3 -35z m748 32 c13 -9 704 -840 704 -847 0 -3 -200 -5 -445
-5 -324 0 -445 3 -445 11 0 6 -31 196 -70 421 -38 226 -67 414 -64 419 6 11
304 12 320 1z m-1816 -1310 c0 -16 83 -305 184 -642 l184 -613 -38 39 c-21 22
-283 310 -584 642 l-546 602 400 0 400 0 0 -28z m1149 -389 c-71 -230 -166
-541 -211 -690 -46 -150 -85 -273 -88 -273 -3 0 -42 123 -88 273 -45 149 -140
460 -211 690 l-128 417 427 0 427 0 -128 -417z m1239 304 c-57 -62 -319 -350
-582 -640 -264 -289 -481 -525 -483 -523 -1 1 80 277 182 612 102 335 185 621
185 636 l0 28 401 0 401 0 -104 -113z"/>
</g>
</svg>
